<svg width="34" height="34" viewBox="0 0 34 34" fill="none" xmlns="http://www.w3.org/2000/svg">
<path d="M31.2605 30.1893C31.2605 28.8334 28.7866 25.0437 28.7866 25.0437C28.7866 25.0437 26.2754 28.8334 26.2754 30.1893C26.2754 31.5425 27.3919 32.64 28.7683 32.64C30.1439 32.64 31.2605 31.5425 31.2605 30.1893ZM13.3731 8.95628H8.38798V4.04192H9.7473V1.36H0.680176V4.04192H2.04018V11.6375C2.04018 13.6122 3.66402 15.2123 5.66662 15.2123H13.3731V16.5532H16.0937V7.61668H13.3731V8.95628ZM31.9588 20.1273V12.5317C31.9588 10.5577 30.3357 8.95696 28.3351 8.95696H20.6273V7.61736H17.9066V16.5546H20.6273V15.213H25.6131V20.1273H24.2551V22.8092H33.3202V20.1273H31.9588Z" fill="#5271FF"/>
</svg>
