<svg width="70" height="70" viewBox="0 0 70 70" fill="none" xmlns="http://www.w3.org/2000/svg">
<path d="M29.3124 30.9371L8.69155 51.5579C8.14919 52.0997 7.71893 52.7431 7.42537 53.4512C7.13181 54.1594 6.98071 54.9184 6.98071 55.685C6.98071 56.4516 7.13181 57.2107 7.42537 57.9189C7.71893 58.627 8.14919 59.2704 8.69155 59.8121C9.78546 60.9057 11.2689 61.52 12.8157 61.52C14.3625 61.52 15.846 60.9057 16.9399 59.8121L37.5607 39.1854M50.1461 40.25L61.457 51.5609C62.5505 52.6548 63.1649 54.1382 63.1649 55.685C63.1649 57.2318 62.5505 58.7153 61.457 59.8092C60.3631 60.9028 58.8796 61.5171 57.3328 61.5171C55.786 61.5171 54.3025 60.9028 53.2086 59.8092L35.0991 41.7025M19.6378 17.22L13.4457 19.2792L7.26239 8.96877L11.3866 4.8446L21.6999 11.0309L19.6378 17.22ZM19.6378 17.22L27.892 25.4742" stroke="#5271FF" stroke-width="1.2" stroke-linecap="round" stroke-linejoin="round"/>
<path d="M29.3125 30.9371C26.8508 24.6575 27.332 16.4179 32.407 11.3429C37.482 6.26793 46.8445 5.15669 51.9983 8.25127L43.1316 17.1179L42.3062 26.1917L51.38 25.3692L60.2466 16.4996C63.3441 21.6563 62.23 31.0188 57.155 36.0908C52.08 41.1658 43.8433 41.6471 37.5637 39.1854" stroke="#5271FF" stroke-width="1.2" stroke-linecap="round" stroke-linejoin="round"/>
</svg>
