<svg width="70" height="70" viewBox="0 0 70 70" fill="none" xmlns="http://www.w3.org/2000/svg">
<path d="M5.99659 56.9188L23.7533 38.9813L33.3491 48.1688L45.077 37.9167L51.6103 44.2867M64.1666 16.0417C64.1666 14.8814 63.7056 13.7686 62.8852 12.9481C62.0647 12.1276 60.9519 11.6667 59.7916 11.6667H10.2083C9.04793 11.6667 7.93513 12.1276 7.11466 12.9481C6.29419 13.7686 5.83325 14.8814 5.83325 16.0417V29.1667H64.1666V16.0417Z" stroke="#5271FF" stroke-width="2" stroke-linecap="round" stroke-linejoin="round"/>
<path d="M64.1666 26.25V53.9584C64.1666 55.1187 63.7056 56.2315 62.8852 57.0519C62.0647 57.8724 60.9519 58.3334 59.7916 58.3334H17.4999M27.8716 20.4167H54.1216M16.202 20.4167H19.1187M5.83325 26.25V39.375" stroke="#5271FF" stroke-width="2" stroke-linecap="round" stroke-linejoin="round"/>
</svg>
