<svg width="34" height="34" viewBox="0 0 34 34" fill="none" xmlns="http://www.w3.org/2000/svg">
<path d="M1.4873 29.75V25.7833C1.4873 25.0042 1.688 24.2722 2.08939 23.5875C2.49078 22.9028 3.04564 22.3833 3.75397 22.0292C4.95814 21.4153 6.31578 20.8958 7.82689 20.4708C9.338 20.0458 11.0026 19.8333 12.8206 19.8333C14.6387 19.8333 16.3033 20.0458 17.8144 20.4708C19.3255 20.8958 20.6831 21.4153 21.8873 22.0292C22.5956 22.3833 23.1505 22.9028 23.5519 23.5875C23.9533 24.2722 24.154 25.0042 24.154 25.7833V29.75H1.4873ZM4.32064 26.9167H21.3206V25.7833C21.3206 25.5236 21.2559 25.2875 21.1266 25.075C20.9972 24.8625 20.8257 24.6972 20.6123 24.5792C19.7623 24.1542 18.6705 23.7292 17.337 23.3042C16.0034 22.8792 14.498 22.6667 12.8206 22.6667C11.1442 22.6667 9.63928 22.8792 8.30572 23.3042C6.97217 23.7292 5.87992 24.1542 5.02897 24.5792C4.81647 24.6972 4.64553 24.8625 4.51614 25.075C4.38675 25.2875 4.32158 25.5236 4.32064 25.7833V26.9167ZM12.8206 18.4167C11.2623 18.4167 9.92828 17.8618 8.81855 16.7521C7.70883 15.6424 7.15397 14.3083 7.15397 12.75H6.7998C6.58731 12.75 6.41636 12.6853 6.28697 12.5559C6.15758 12.4265 6.09242 12.2551 6.09147 12.0417C6.09147 11.8292 6.15664 11.6578 6.28697 11.5274C6.4173 11.3971 6.58825 11.3324 6.7998 11.3333H7.15397C7.15397 10.2708 7.41369 9.31458 7.93314 8.46458C8.45258 7.61458 9.1373 6.94167 9.9873 6.44583V7.79167C9.9873 8.00417 10.0525 8.17558 10.1828 8.30592C10.3131 8.43625 10.4841 8.50094 10.6956 8.5C10.9081 8.5 11.0796 8.43531 11.2099 8.30592C11.3402 8.17653 11.4049 8.00511 11.404 7.79167V5.87917C11.6165 5.80833 11.8408 5.75544 12.0769 5.7205C12.313 5.68556 12.5609 5.66761 12.8206 5.66667C13.0804 5.66667 13.3283 5.68461 13.5644 5.7205C13.8005 5.75639 14.0248 5.80928 14.2373 5.87917V7.79167C14.2373 8.00417 14.3025 8.17558 14.4328 8.30592C14.5631 8.43625 14.7341 8.50094 14.9456 8.5C15.1581 8.5 15.3296 8.43531 15.4599 8.30592C15.5902 8.17653 15.6549 8.00511 15.654 7.79167V6.44583C16.504 6.94167 17.1887 7.61458 17.7081 8.46458C18.2276 9.31458 18.4873 10.2708 18.4873 11.3333H18.8415C19.054 11.3333 19.2254 11.3985 19.3557 11.5288C19.4861 11.6592 19.5507 11.8301 19.5498 12.0417C19.5498 12.2542 19.4851 12.4256 19.3557 12.5559C19.2263 12.6862 19.0549 12.7509 18.8415 12.75H18.4873C18.4873 14.3083 17.9324 15.6424 16.8227 16.7521C15.713 17.8618 14.379 18.4167 12.8206 18.4167ZM12.8206 15.5833C13.5998 15.5833 14.2671 15.3061 14.8224 14.7517C15.3777 14.1974 15.6549 13.5301 15.654 12.75H9.9873C9.9873 13.5292 10.265 14.1964 10.8203 14.7517C11.3756 15.3071 12.0424 15.5843 12.8206 15.5833ZM23.4456 21.25L23.2331 20.1875C23.0915 20.1403 22.9559 20.0874 22.8266 20.0288C22.6972 19.9703 22.573 19.8815 22.454 19.7625L21.4623 20.1167L20.754 18.8417L21.5331 18.1333V17.2833L20.754 16.575L21.4623 15.3L22.454 15.6542C22.5484 15.5597 22.6665 15.4771 22.8081 15.4062C22.9498 15.3354 23.0915 15.2764 23.2331 15.2292L23.4456 14.1667H24.8623L25.0748 15.2292C25.2165 15.2764 25.3581 15.3354 25.4998 15.4062C25.6415 15.4771 25.7595 15.5597 25.854 15.6542L26.8456 15.3L27.554 16.575L26.7748 17.2833V18.1333L27.554 18.8417L26.8456 20.1167L25.854 19.7625C25.7359 19.8806 25.6122 19.9693 25.4828 20.0288C25.3534 20.0883 25.2174 20.1412 25.0748 20.1875L24.8623 21.25H23.4456ZM24.154 18.7708C24.4373 18.7708 24.6852 18.6646 24.8977 18.4521C25.1102 18.2396 25.2165 17.9917 25.2165 17.7083C25.2165 17.425 25.1102 17.1771 24.8977 16.9646C24.6852 16.7521 24.4373 16.6458 24.154 16.6458C23.8706 16.6458 23.6227 16.7521 23.4102 16.9646C23.1977 17.1771 23.0915 17.425 23.0915 17.7083C23.0915 17.9917 23.1977 18.2396 23.4102 18.4521C23.6227 18.6646 23.8706 18.7708 24.154 18.7708ZM26.704 14.1667L26.4206 12.6792C26.2081 12.6083 26.0136 12.52 25.837 12.4142C25.6604 12.3085 25.5007 12.1843 25.3581 12.0417L23.8706 12.5375L22.879 10.8375L24.0831 9.775C24.0359 9.65694 24.0123 9.5625 24.0123 9.49167V8.925C24.0123 8.85417 24.0359 8.75972 24.0831 8.64167L22.879 7.57917L23.8706 5.87917L25.3581 6.375C25.4998 6.23333 25.6594 6.10914 25.837 6.00242C26.0145 5.89569 26.2091 5.80739 26.4206 5.7375L26.704 4.25H28.6873L28.9706 5.7375C29.1831 5.80833 29.3782 5.89711 29.5557 6.00383C29.7333 6.11056 29.8924 6.23428 30.0331 6.375L31.5206 5.87917L32.5123 7.57917L31.3081 8.64167C31.3554 8.75972 31.379 8.85417 31.379 8.925V9.49167C31.379 9.5625 31.3554 9.65694 31.3081 9.775L32.5123 10.8375L31.5206 12.5375L30.0331 12.0417C29.8915 12.1833 29.7323 12.3075 29.5557 12.4142C29.3791 12.521 29.1841 12.6093 28.9706 12.6792L28.6873 14.1667H26.704ZM27.6956 10.9792C28.1915 10.9792 28.6108 10.8077 28.9536 10.4649C29.2965 10.1221 29.4674 9.70322 29.4665 9.20833C29.4665 8.7125 29.2951 8.29317 28.9522 7.95033C28.6094 7.6075 28.1905 7.43656 27.6956 7.4375C27.1998 7.4375 26.7805 7.60892 26.4376 7.95175C26.0948 8.29458 25.9239 8.71344 25.9248 9.20833C25.9248 9.70417 26.0962 10.1235 26.4391 10.4663C26.7819 10.8092 27.2007 10.9801 27.6956 10.9792Z" fill="#5271FF"/>
</svg>
