<svg width="18" height="18" viewBox="0 0 18 18" fill="none" xmlns="http://www.w3.org/2000/svg">
<path d="M9 3.3125C5.85918 3.3125 3.3125 5.85918 3.3125 9C3.3125 12.1408 5.85918 14.6875 9 14.6875C12.1408 14.6875 14.6875 12.1408 14.6875 9C14.6875 5.85918 12.1408 3.3125 9 3.3125ZM9 13.7227C6.39238 13.7227 4.27734 11.6076 4.27734 9C4.27734 6.39238 6.39238 4.27734 9 4.27734C11.6076 4.27734 13.7227 6.39238 13.7227 9C13.7227 11.6076 11.6076 13.7227 9 13.7227ZM9.07109 6.95986C9.74395 6.95986 10.201 7.38897 10.2518 8.01865C10.2556 8.07197 10.3 8.1126 10.3533 8.1126H11.0731C11.1062 8.1126 11.1328 8.08594 11.1328 8.05293C11.1328 6.95225 10.2645 6.18164 9.06729 6.18164C7.67207 6.18164 6.86719 7.12363 6.86719 8.68008V9.34404C6.86719 10.8891 7.67207 11.8184 9.06729 11.8184C10.2606 11.8184 11.1328 11.0719 11.1328 10.0232C11.1328 9.99023 11.1062 9.96357 11.0731 9.96357H10.3521C10.2987 9.96357 10.2556 10.0042 10.2505 10.0563C10.1972 10.6415 9.74141 11.0439 9.06982 11.0439C8.24082 11.0439 7.77363 10.4358 7.77363 9.34785V8.68008C7.7749 7.57559 8.24336 6.95986 9.07109 6.95986Z" fill="#94A3B8"/>
</svg>
