<svg width="204" height="59" viewBox="0 0 204 59" fill="none" xmlns="http://www.w3.org/2000/svg">
<path d="M196.444 59H7.55556C3.40189 59 0 55.6794 0 51.625V7.37501C0 3.3206 3.40189 5.4802e-06 7.55556 5.4802e-06H196.444C200.598 5.4802e-06 204 3.3206 204 7.37501V51.625C204 55.6794 200.598 59 196.444 59Z" fill="black"/>
<path d="M196.444 1.18185C199.943 1.18185 202.789 3.96038 202.789 7.37501V51.625C202.789 55.0396 199.943 57.8182 196.444 57.8182H7.55556C4.05733 57.8182 1.21078 55.0396 1.21078 51.625V7.37501C1.21078 3.96038 4.05733 1.18185 7.55556 1.18185H196.444ZM196.444 5.4802e-06H7.55556C3.40189 5.4802e-06 0 3.3206 0 7.37501V51.625C0 55.6794 3.40189 59 7.55556 59H196.444C200.598 59 204 55.6794 204 51.625V7.37501C204 3.3206 200.598 5.4802e-06 196.444 5.4802e-06Z" fill="#A6A6A6"/>
<path d="M71.6531 15.1096C71.6531 16.3413 71.2753 17.3277 70.5311 18.0633C69.6754 18.9354 68.561 19.3742 67.1953 19.3742C65.8901 19.3742 64.7756 18.928 63.8614 18.0486C62.9453 17.1562 62.4882 16.061 62.4882 14.7501C62.4882 13.4392 62.9453 12.344 63.8614 11.459C64.7756 10.5722 65.8901 10.126 67.1953 10.126C67.8451 10.126 68.4646 10.2569 69.0559 10.5003C69.6452 10.7455 70.125 11.0774 70.4725 11.4867L69.683 12.2647C69.0766 11.5659 68.2512 11.2212 67.1953 11.2212C66.2433 11.2212 65.4179 11.5457 64.7171 12.2002C64.0239 12.8566 63.6763 13.7065 63.6763 14.7501C63.6763 15.7937 64.0239 16.651 64.7171 17.3074C65.4179 17.9545 66.2433 18.2864 67.1953 18.2864C68.2059 18.2864 69.0559 17.9545 69.7264 17.3C70.1684 16.8667 70.4197 16.2694 70.4858 15.506H67.1953V14.4404H71.5851C71.638 14.6708 71.6531 14.8939 71.6531 15.1096Z" fill="white" stroke="white" stroke-width="0.16" stroke-miterlimit="10"/>
<path d="M78.6175 11.4146H74.494V14.2171H78.2113V15.2828H74.494V18.0853H78.6175V19.1712H73.3267V10.3286H78.6175V11.4146Z" fill="white" stroke="white" stroke-width="0.16" stroke-miterlimit="10"/>
<path d="M83.5323 19.1712H82.3649V11.4146H79.8357V10.3286H86.0634V11.4146H83.5323V19.1712Z" fill="white" stroke="white" stroke-width="0.16" stroke-miterlimit="10"/>
<path d="M90.5703 19.1712V10.3286H91.7354V19.1712H90.5703Z" fill="white" stroke="white" stroke-width="0.16" stroke-miterlimit="10"/>
<path d="M96.9019 19.1712H95.744V11.4146H93.2053V10.3286H99.4405V11.4146H96.9019V19.1712Z" fill="white" stroke="white" stroke-width="0.16" stroke-miterlimit="10"/>
<path d="M111.231 18.0338C110.337 18.928 109.231 19.3742 107.91 19.3742C106.582 19.3742 105.475 18.928 104.582 18.0338C103.69 17.1414 103.247 16.0463 103.247 14.7501C103.247 13.4539 103.69 12.3588 104.582 11.4664C105.475 10.5722 106.582 10.126 107.91 10.126C109.223 10.126 110.33 10.5722 111.223 11.4738C112.122 12.3735 112.566 13.4613 112.566 14.7501C112.566 16.0463 112.122 17.1414 111.231 18.0338ZM105.445 17.2926C106.118 17.9545 106.936 18.2864 107.91 18.2864C108.877 18.2864 109.703 17.9545 110.368 17.2926C111.038 16.6307 111.378 15.7808 111.378 14.7501C111.378 13.7194 111.038 12.8695 110.368 12.2076C109.703 11.5457 108.877 11.2138 107.91 11.2138C106.936 11.2138 106.118 11.5457 105.445 12.2076C104.775 12.8695 104.435 13.7194 104.435 14.7501C104.435 15.7808 104.775 16.6307 105.445 17.2926Z" fill="white" stroke="white" stroke-width="0.16" stroke-miterlimit="10"/>
<path d="M114.204 19.1712V10.3286H115.621L120.026 17.2058H120.077L120.026 15.5059V10.3286H121.191V19.1712H119.975L115.362 11.9548H115.311L115.362 13.6621V19.1712H114.204Z" fill="white" stroke="white" stroke-width="0.16" stroke-miterlimit="10"/>
<path d="M102.96 32.085C99.4104 32.085 96.5109 34.7216 96.5109 38.3593C96.5109 41.9675 99.4104 44.6317 102.96 44.6317C106.516 44.6317 109.416 41.9675 109.416 38.3593C109.416 34.7216 106.516 32.085 102.96 32.085ZM102.96 42.1611C101.012 42.1611 99.3367 40.5921 99.3367 38.3593C99.3367 36.097 101.012 34.5557 102.96 34.5557C104.907 34.5557 106.59 36.097 106.59 38.3593C106.59 40.5921 104.907 42.1611 102.96 42.1611ZM88.8893 32.085C85.3325 32.085 82.4406 34.7216 82.4406 38.3593C82.4406 41.9675 85.3325 44.6317 88.8893 44.6317C92.4441 44.6317 95.3379 41.9675 95.3379 38.3593C95.3379 34.7216 92.4441 32.085 88.8893 32.085ZM88.8893 42.1611C86.9399 42.1611 85.2588 40.5921 85.2588 38.3593C85.2588 36.097 86.9399 34.5557 88.8893 34.5557C90.8367 34.5557 92.5121 36.097 92.5121 38.3593C92.5121 40.5921 90.8367 42.1611 88.8893 42.1611ZM72.1462 34.0081V36.6741H78.6685C78.4777 38.1639 77.9677 39.2591 77.1857 40.0224C76.2337 40.9443 74.7509 41.9675 72.1462 41.9675C68.1323 41.9675 64.9892 38.8055 64.9892 34.8875C64.9892 30.9696 68.1323 27.8075 72.1462 27.8075C74.3165 27.8075 75.8956 28.6354 77.061 29.7084L78.9858 27.8297C77.3557 26.3104 75.1873 25.1433 72.1462 25.1433C66.6419 25.1433 62.016 29.5149 62.016 34.8875C62.016 40.2602 66.6419 44.6317 72.1462 44.6317C75.1211 44.6317 77.3557 43.6804 79.1124 41.8956C80.9125 40.1385 81.4735 37.6679 81.4735 35.673C81.4735 35.0535 81.4206 34.4838 81.3261 34.0081H72.1462ZM140.611 36.0749C140.08 34.6718 138.442 32.085 135.107 32.085C131.801 32.085 129.049 34.6276 129.049 38.3593C129.049 41.8735 131.773 44.6317 135.424 44.6317C138.376 44.6317 140.08 42.8747 140.781 41.8514L138.59 40.4262C137.859 41.4697 136.863 42.1611 135.424 42.1611C133.994 42.1611 132.968 41.5213 132.311 40.2602L140.907 36.7884L140.611 36.0749ZM131.846 38.1639C131.773 35.7449 133.771 34.5059 135.203 34.5059C136.325 34.5059 137.277 35.0535 137.594 35.8371L131.846 38.1639ZM124.859 44.2501H127.685V25.8126H124.859V44.2501ZM120.232 33.4826H120.137C119.502 32.7488 118.292 32.085 116.758 32.085C113.539 32.085 110.596 34.8433 110.596 38.3796C110.596 41.8956 113.539 44.6317 116.758 44.6317C118.292 44.6317 119.502 43.9625 120.137 43.2065H120.232V44.1063C120.232 46.505 118.919 47.7938 116.801 47.7938C115.075 47.7938 114.004 46.5769 113.562 45.5536L111.104 46.5548C111.813 48.2178 113.688 50.2644 116.801 50.2644C120.114 50.2644 122.91 48.3617 122.91 43.732V32.4667H120.232V33.4826ZM117 42.1611C115.052 42.1611 113.422 40.57 113.422 38.3796C113.422 36.1689 115.052 34.5557 117 34.5557C118.919 34.5557 120.432 36.1689 120.432 38.3796C120.432 40.57 118.919 42.1611 117 42.1611ZM153.841 25.8126H147.082V44.2501H149.9V37.2641H153.841C156.97 37.2641 160.04 35.0535 160.04 31.5374C160.04 28.0233 156.963 25.8126 153.841 25.8126ZM153.914 34.6995H149.9V28.3773H153.914C156.018 28.3773 157.22 30.0827 157.22 31.5374C157.22 32.9645 156.018 34.6995 153.914 34.6995ZM171.335 32.05C169.299 32.05 167.182 32.9276 166.311 34.8728L168.812 35.8961C169.35 34.8728 170.34 34.5409 171.386 34.5409C172.848 34.5409 174.331 35.3983 174.354 36.912V37.1056C173.844 36.8179 172.752 36.392 171.409 36.392C168.716 36.392 165.971 37.8394 165.971 40.5405C165.971 43.0111 168.177 44.6022 170.657 44.6022C172.554 44.6022 173.6 43.767 174.258 42.7954H174.354V44.2206H177.076V37.148C177.076 33.879 174.575 32.05 171.335 32.05ZM170.995 42.1538C170.074 42.1538 168.789 41.7076 168.789 40.5921C168.789 39.165 170.391 38.6174 171.777 38.6174C173.018 38.6174 173.6 38.8848 174.354 39.2369C174.133 40.9443 172.627 42.1538 170.995 42.1538ZM186.992 32.4538L183.753 40.4464H183.657L180.308 32.4538H177.268L182.3 43.6232L179.429 49.8385H182.374L190.128 32.4538H186.992ZM161.589 44.2501H164.415V25.8126H161.589V44.2501Z" fill="white"/>
<path d="M15.7684 11.1197C15.3245 11.5732 15.0677 12.2794 15.0677 13.1939V45.8135C15.0677 46.728 15.3245 47.4342 15.7684 47.8877L15.878 47.9873L34.6044 29.7157V29.2843L15.878 11.0127L15.7684 11.1197Z" fill="url(#paint0_linear_0_110)"/>
<path d="M40.8396 35.8093L34.6044 29.7157V29.2843L40.8472 23.1907L40.987 23.27L48.3801 27.376C50.49 28.5413 50.49 30.4588 48.3801 31.6314L40.987 35.73L40.8396 35.8093Z" fill="url(#paint1_linear_0_110)"/>
<path d="M40.9869 35.7301L34.6044 29.5001L15.7684 47.8878C16.4692 48.6069 17.6119 48.6936 18.9115 47.9745L40.9869 35.7301Z" fill="url(#paint2_linear_0_110)"/>
<path d="M40.9869 23.27L18.9115 11.0256C17.6119 10.3139 16.4692 10.4006 15.7684 11.1197L34.6044 29.5L40.9869 23.27Z" fill="url(#paint3_linear_0_110)"/>
<defs>
<linearGradient id="paint0_linear_0_110" x1="32.9418" y1="46.1532" x2="8.19495" y2="20.8006" gradientUnits="userSpaceOnUse">
<stop stop-color="#00A0FF"/>
<stop offset="0.0066" stop-color="#00A1FF"/>
<stop offset="0.2601" stop-color="#00BEFF"/>
<stop offset="0.5122" stop-color="#00D2FF"/>
<stop offset="0.7604" stop-color="#00DFFF"/>
<stop offset="1" stop-color="#00E3FF"/>
</linearGradient>
<linearGradient id="paint1_linear_0_110" x1="51.1275" y1="29.4979" x2="14.5633" y2="29.4979" gradientUnits="userSpaceOnUse">
<stop stop-color="#FFE000"/>
<stop offset="0.4087" stop-color="#FFBD00"/>
<stop offset="0.7754" stop-color="#FFA500"/>
<stop offset="1" stop-color="#FF9C00"/>
</linearGradient>
<linearGradient id="paint2_linear_0_110" x1="37.5163" y1="26.1134" x2="3.95762" y2="-8.26689" gradientUnits="userSpaceOnUse">
<stop stop-color="#FF3A44"/>
<stop offset="1" stop-color="#C31162"/>
</linearGradient>
<linearGradient id="paint3_linear_0_110" x1="11.027" y1="58.7401" x2="26.0124" y2="43.3879" gradientUnits="userSpaceOnUse">
<stop stop-color="#32A071"/>
<stop offset="0.0685" stop-color="#2DA771"/>
<stop offset="0.4762" stop-color="#15CF74"/>
<stop offset="0.8009" stop-color="#06E775"/>
<stop offset="1" stop-color="#00F076"/>
</linearGradient>
</defs>
</svg>
