<svg width="138" height="54" viewBox="0 0 138 54" fill="none" xmlns="http://www.w3.org/2000/svg">
<circle cx="15" cy="15" r="15" fill="#F4932D"/>
<path d="M23 10.4255C22.4116 10.6598 21.7713 10.8284 21.1118 10.8941C21.7965 10.5185 22.3093 9.92521 22.5539 9.22545C21.9113 9.57833 21.2074 9.82578 20.4734 9.95681C20.1666 9.65402 19.7955 9.4128 19.3833 9.24819C18.9711 9.08357 18.5266 8.99909 18.0775 9.00001C16.2604 9.00001 14.7991 10.3598 14.7991 12.0284C14.7991 12.2627 14.8298 12.497 14.8798 12.7225C12.159 12.5911 9.73236 11.3911 8.1191 9.55385C7.82514 10.0174 7.6711 10.5451 7.673 11.0823C7.673 12.1331 8.25177 13.0598 9.13436 13.6047C8.61424 13.5858 8.1063 13.4538 7.65184 13.2195V13.2568C7.65184 14.7284 8.77863 15.9479 10.2804 16.2284C9.99841 16.296 9.70834 16.3306 9.41702 16.3314C9.20358 16.3314 9.00168 16.3118 8.79786 16.2852C9.2132 17.4852 10.4227 18.3568 11.8629 18.3852C10.7361 19.2 9.32472 19.6793 7.79221 19.6793C7.51725 19.6793 7.26343 19.6704 7 19.642C8.45367 20.503 10.1785 21 12.0359 21C18.066 21 21.3656 16.3882 21.3656 12.3852C21.3656 12.2539 21.3656 12.1225 21.356 11.9911C21.9944 11.5598 22.5539 11.0254 23 10.4255Z" fill="white"/>
<circle cx="69" cy="15" r="15" fill="#F4932D"/>
<path fill-rule="evenodd" clip-rule="evenodd" d="M65.9957 8.045C66.9021 8.00818 67.1911 8 69.5 8C71.8089 8 72.0979 8.00886 73.0035 8.045C73.9092 8.08114 74.5274 8.20864 75.0683 8.39341C75.6347 8.58227 76.1485 8.8775 76.5735 9.25932C77.0063 9.63364 77.3401 10.0864 77.5534 10.5868C77.7635 11.0641 77.9073 11.6095 77.949 12.4073C77.9907 13.2084 78 13.4634 78 15.5C78 17.5373 77.99 17.7923 77.949 18.592C77.908 19.3898 77.7635 19.9352 77.5534 20.4125C77.3401 20.913 77.0057 21.3665 76.5735 21.7414C76.1485 22.1232 75.6347 22.4177 75.0683 22.6059C74.5274 22.7914 73.9092 22.9182 73.0051 22.955C72.0979 22.9918 71.8089 23 69.5 23C67.1911 23 66.9021 22.9911 65.9957 22.955C65.0916 22.9189 64.4734 22.7914 63.9325 22.6059C63.3653 22.4177 62.8513 22.1227 62.4265 21.7414C61.994 21.3668 61.6594 20.9136 61.4459 20.4132C61.2365 19.9359 61.0927 19.3905 61.051 18.5927C61.0093 17.7916 61 17.5366 61 15.5C61 13.4627 61.01 13.2077 61.051 12.4086C61.092 11.6095 61.2365 11.0641 61.4459 10.5868C61.6597 10.0864 61.9946 9.63317 62.4272 9.25864C62.8515 8.87716 63.3649 8.58189 63.9317 8.39341C64.4726 8.20864 65.0908 8.08182 65.9949 8.045H65.9957ZM72.9348 9.395C72.0384 9.35886 71.7695 9.35136 69.5 9.35136C67.2305 9.35136 66.9616 9.35886 66.0652 9.395C65.2361 9.42841 64.7864 9.55045 64.4865 9.65341C64.0901 9.78977 63.8065 9.95136 63.509 10.2139C63.227 10.4559 63.01 10.7506 62.8739 11.0764C62.7572 11.3409 62.6189 11.7377 62.581 12.4693C62.54 13.2602 62.5315 13.4975 62.5315 15.5C62.5315 17.5025 62.54 17.7398 62.581 18.5307C62.6189 19.2623 62.7572 19.6591 62.8739 19.9236C63.0099 20.2489 63.227 20.5441 63.509 20.7861C63.7834 21.035 64.118 21.2266 64.4865 21.3466C64.7864 21.4495 65.2361 21.5716 66.0652 21.605C66.9616 21.6411 67.2297 21.6486 69.5 21.6486C71.7703 21.6486 72.0384 21.6411 72.9348 21.605C73.7639 21.5716 74.2136 21.4495 74.5135 21.3466C74.9099 21.2102 75.1935 21.0486 75.491 20.7861C75.773 20.5441 75.9901 20.2489 76.1261 19.9236C76.2428 19.6591 76.3811 19.2623 76.419 18.5307C76.46 17.7398 76.4685 17.5025 76.4685 15.5C76.4685 13.4975 76.46 13.2602 76.419 12.4693C76.3811 11.7377 76.2428 11.3409 76.1261 11.0764C75.9716 10.7266 75.7885 10.4764 75.491 10.2139C75.2166 9.96505 74.8826 9.77355 74.5135 9.65341C74.2136 9.55045 73.7639 9.42841 72.9348 9.395ZM68.4143 17.812C69.0206 18.0347 69.6958 18.0648 70.3244 17.8971C70.9531 17.7294 71.4963 17.3743 71.8612 16.8924C72.226 16.4106 72.39 15.832 72.3251 15.2553C72.2602 14.6786 71.9704 14.1398 71.5052 13.7307C71.2087 13.4692 70.8501 13.269 70.4553 13.1444C70.0606 13.0199 69.6394 12.9741 69.2222 13.0104C68.805 13.0467 68.4021 13.1642 68.0425 13.3544C67.6829 13.5446 67.3756 13.8028 67.1426 14.1104C66.9097 14.4179 66.757 14.7672 66.6954 15.1332C66.6338 15.4991 66.665 15.8725 66.7866 16.2265C66.9082 16.5805 67.1173 16.9063 67.3987 17.1805C67.6802 17.4547 68.027 17.6704 68.4143 17.812ZM66.4106 12.7741C66.8163 12.4161 67.298 12.1322 67.828 11.9384C68.3581 11.7447 68.9263 11.645 69.5 11.645C70.0737 11.645 70.6419 11.7447 71.172 11.9384C71.702 12.1322 72.1837 12.4161 72.5894 12.7741C72.9951 13.1321 73.3169 13.557 73.5364 14.0247C73.756 14.4925 73.869 14.9938 73.869 15.5C73.869 16.0062 73.756 16.5075 73.5364 16.9753C73.3169 17.443 72.9951 17.8679 72.5894 18.2259C71.77 18.9489 70.6587 19.355 69.5 19.355C68.3413 19.355 67.23 18.9489 66.4106 18.2259C65.5913 17.503 65.131 16.5224 65.131 15.5C65.131 14.4776 65.5913 13.497 66.4106 12.7741ZM74.838 12.2191C74.9385 12.1354 75.019 12.0348 75.0747 11.9232C75.1304 11.8115 75.1601 11.6912 75.1621 11.5693C75.1641 11.4473 75.1384 11.3263 75.0864 11.2133C75.0345 11.1003 74.9573 10.9976 74.8596 10.9114C74.7619 10.8252 74.6455 10.7571 74.5175 10.7113C74.3894 10.6654 74.2522 10.6427 74.114 10.6445C73.9758 10.6463 73.8394 10.6725 73.7129 10.7216C73.5864 10.7707 73.4724 10.8417 73.3775 10.9305C73.1931 11.103 73.0921 11.3321 73.096 11.5693C73.1 11.8064 73.2085 12.0329 73.3985 12.2006C73.5886 12.3683 73.8452 12.464 74.114 12.4675C74.3828 12.4709 74.6425 12.3818 74.838 12.2191Z" fill="white"/>
<circle cx="123" cy="15" r="15" fill="#F4932D"/>
<path d="M129.392 10.8295C128.289 10.4391 127.126 10.1605 125.931 10.0006C125.92 9.99916 125.909 10.0004 125.899 10.004C125.889 10.0077 125.881 10.0137 125.876 10.0211C125.726 10.2261 125.56 10.4942 125.444 10.7041C124.156 10.5532 122.846 10.5532 121.558 10.7041C121.429 10.4702 121.283 10.2422 121.12 10.0211C121.115 10.0137 121.106 10.0079 121.097 10.0042C121.087 10.0006 121.076 9.99928 121.065 10.0006C119.87 10.1596 118.706 10.4384 117.604 10.8295C117.595 10.8323 117.587 10.8375 117.582 10.8443C115.378 13.3853 114.774 15.864 115.07 18.3115C115.071 18.323 115.081 18.3344 115.093 18.3418C116.376 19.0754 117.811 19.6354 119.337 19.9981C119.348 20.0007 119.36 20.0006 119.37 19.9978C119.381 19.995 119.39 19.9897 119.397 19.9825C119.724 19.6381 120.015 19.2749 120.266 18.8928C120.271 18.885 120.273 18.876 120.271 18.8673C120.269 18.8586 120.264 18.8505 120.255 18.8444C120.25 18.8404 120.243 18.8374 120.236 18.8354C119.778 18.6997 119.335 18.5365 118.91 18.3476C118.898 18.3424 118.889 18.3339 118.885 18.3238C118.882 18.3137 118.883 18.3028 118.889 18.2934C118.893 18.2873 118.898 18.282 118.905 18.2779C118.994 18.2262 119.083 18.1721 119.168 18.118C119.176 18.1133 119.185 18.1103 119.194 18.1093C119.204 18.1083 119.214 18.1093 119.223 18.1122C122.005 19.0929 125.017 19.0929 127.766 18.1122C127.775 18.1092 127.785 18.1081 127.795 18.1091C127.805 18.1101 127.814 18.1132 127.822 18.118C127.907 18.1721 127.997 18.2262 128.086 18.2779C128.093 18.2819 128.099 18.2873 128.103 18.2936C128.107 18.2998 128.108 18.3067 128.108 18.3136C128.108 18.3205 128.105 18.3272 128.1 18.3331C128.096 18.3391 128.089 18.344 128.082 18.3476C127.658 18.5383 127.214 18.7012 126.754 18.8346C126.747 18.8367 126.741 18.8399 126.735 18.8442C126.73 18.8484 126.725 18.8536 126.723 18.8592C126.72 18.8647 126.719 18.8705 126.72 18.8763C126.72 18.882 126.722 18.8877 126.726 18.8928C126.981 19.2741 127.273 19.6381 127.594 19.9825C127.6 19.9897 127.61 19.995 127.62 19.9978C127.631 20.0006 127.643 20.0007 127.653 19.9981C129.182 19.6365 130.62 19.0764 131.904 18.3418C131.911 18.3384 131.916 18.3339 131.92 18.3286C131.924 18.3234 131.926 18.3175 131.927 18.3115C132.282 15.4819 131.333 13.0237 129.413 10.8451C129.411 10.8415 129.408 10.8383 129.404 10.8356C129.401 10.8329 129.396 10.8308 129.392 10.8295ZM120.681 16.8208C119.843 16.8208 119.153 16.2272 119.153 15.4991C119.153 14.7702 119.83 14.1765 120.681 14.1765C121.539 14.1765 122.222 14.7751 122.209 15.4991C122.209 16.2272 121.532 16.8208 120.681 16.8208ZM126.329 16.8208C125.492 16.8208 124.802 16.2272 124.802 15.4991C124.802 14.7702 125.478 14.1765 126.329 14.1765C127.187 14.1765 127.871 14.7751 127.857 15.4991C127.857 16.2272 127.187 16.8208 126.329 16.8208Z" fill="white"/>
<g clip-path="url(#clip0_15_290)">
<path d="M89.2299 41.7334C88.0299 40.4667 86.4299 39.6001 84.7633 39.2667C84.0299 39.0667 83.2966 38.9334 82.5633 38.8667C84.4299 36.6667 84.0966 33.3334 81.8966 31.4667C79.6966 29.6001 76.3633 29.9334 74.4966 32.1334C72.6299 34.3334 72.9633 37.6667 75.1633 39.5334C75.5633 39.8667 75.9633 40.1334 76.3633 40.2667V41.7334L75.2966 40.7334C74.3633 39.8001 72.8299 39.8001 71.8299 40.7334C70.8966 41.6667 70.8299 43.1334 71.7633 44.0667L74.8299 47.6667C74.9633 48.6001 75.2966 49.4667 75.7633 50.2667C76.0966 50.8667 76.5633 51.4667 77.0299 51.9334V53.2C77.0299 53.6 77.2966 53.8667 77.6966 53.8667H86.7633C87.0966 53.8667 87.4299 53.5334 87.4299 53.2V51.4667C88.6966 49.9334 89.3633 48.0001 89.3633 46.0667V42.2001C89.4299 41.9334 89.3633 41.8001 89.2299 41.7334ZM74.5633 35.4667C74.5633 33.2667 76.3633 31.5334 78.5633 31.6001C80.7633 31.6001 82.4966 33.4001 82.4299 35.6001C82.4299 36.8001 81.8966 37.8667 80.9633 38.6001V35.2667C80.9292 34.689 80.6755 34.1461 80.254 33.7495C79.8326 33.3528 79.2753 33.1324 78.6966 33.1334C77.4966 33.0667 76.4299 34.0667 76.4299 35.2667V38.7334C75.2966 38.0667 74.6299 36.8001 74.5633 35.4667ZM88.0966 46.0001C88.1633 47.7334 87.5633 49.4001 86.4299 50.7334C86.2966 50.8667 86.1633 51 86.1633 51.2001V52.6H78.4299V51.6667C78.4299 51.4667 78.2966 51.2667 78.1633 51.1334C77.6966 50.7334 77.2966 50.2667 76.9633 49.6667C76.5633 49.0001 76.2966 48.2001 76.1633 47.4001C76.1633 47.2667 76.0966 47.1334 76.0299 47.0001L72.8299 43.2001C72.6299 43.0001 72.4966 42.7334 72.4966 42.4001C72.4966 42.1334 72.6299 41.8001 72.8299 41.6001C73.2966 41.2001 73.9633 41.2001 74.4299 41.6001L76.3633 43.5334V45.5334L77.6299 44.8667V35.2667C77.6966 34.8001 78.0966 34.4001 78.6299 34.4667C79.0966 34.4667 79.5633 34.8001 79.5633 35.2667V42.9334L80.8966 43.2001V40.1334C80.9633 40.0667 81.0299 40.0667 81.0966 40.0001C81.5633 40.0001 82.0299 40.0667 82.4966 40.1334V43.5334L83.5633 43.7334V40.2667L84.3633 40.4667C84.6966 40.5334 85.0299 40.6667 85.3633 40.8001V44.1334L86.4299 44.3334V41.2667C87.0299 41.5334 87.5633 41.9334 88.0299 42.4001L88.0966 46.0001Z" fill="white"/>
</g>
<defs>
<clipPath id="clip0_15_290">
<rect width="24" height="24" fill="white" transform="translate(68.9629 30)"/>
</clipPath>
</defs>
</svg>
