<svg width="34" height="34" viewBox="0 0 34 34" fill="none" xmlns="http://www.w3.org/2000/svg">
<path d="M23.3749 3.81863L19.1249 8.03569L16.7024 5.61106L15.1724 7.14106L15.9692 7.93794L10.525 13.3822C9.9064 14.0041 9.55916 14.8457 9.55916 15.7229C9.55916 16.6001 9.9064 17.4416 10.525 18.0636L12.4842 20.0228L4.54736 27.9246L6.07736 29.4546L13.9781 21.5178L15.9374 23.4749C16.5593 24.0935 17.4008 24.4407 18.278 24.4407C19.1552 24.4407 19.9968 24.0935 20.6187 23.4749L26.0641 18.0296L26.8609 18.8264L28.3909 17.2964L25.9642 14.875L30.1802 10.625L28.6874 9.13113L24.4374 13.3493L20.6517 9.5625L24.8698 5.3125L23.3749 3.81863ZM17.4642 9.42863L24.5702 16.5346L19.1249 21.9821C18.7126 22.3933 17.8435 22.3933 17.4312 21.9821L12.0199 16.5697C11.6077 16.1574 11.6077 15.2883 12.0199 14.8761L17.4642 9.43075V9.42863Z" fill="#5271FF"/>
</svg>
