<svg width="144" height="24" viewBox="0 0 144 24" fill="none" xmlns="http://www.w3.org/2000/svg">
<rect width="37.9411" height="24" rx="3" fill="#00579F"/>
<path d="M17.0514 16.1516H14.7119L16.1752 7.875H18.5145L17.0514 16.1516Z" fill="white"/>
<path d="M25.5147 8.07698C25.054 7.90951 24.3232 7.72461 23.4196 7.72461C21.1129 7.72461 19.4885 8.85158 19.4785 10.4628C19.4594 11.6516 20.6415 12.3118 21.5257 12.7082C22.4294 13.1132 22.7366 13.3776 22.7366 13.7386C22.7274 14.2931 22.0064 14.5487 21.3338 14.5487C20.4013 14.5487 19.9016 14.4169 19.1422 14.1084L18.8346 13.9762L18.5078 15.8341C19.0556 16.0628 20.0649 16.2657 21.1129 16.2746C23.5638 16.2746 25.1595 15.1651 25.1784 13.4481C25.1877 12.5059 24.5635 11.7839 23.2177 11.194C22.4007 10.8153 21.9003 10.5599 21.9003 10.1725C21.9099 9.82021 22.3235 9.45942 23.2458 9.45942C24.0051 9.44175 24.5631 9.60898 24.9857 9.77633L25.197 9.86422L25.5147 8.07698Z" fill="white"/>
<path d="M28.6198 13.2195C28.8122 12.744 29.5524 10.9038 29.5524 10.9038C29.5427 10.9214 29.7444 10.4195 29.8597 10.1114L30.023 10.8246C30.023 10.8246 30.4653 12.8057 30.5614 13.2195C30.1963 13.2195 29.0812 13.2195 28.6198 13.2195ZM31.5031 7.875H29.6963C29.1392 7.875 28.7159 8.02456 28.4755 8.56172L25.0059 16.1515H27.4568C27.4568 16.1515 27.8603 15.13 27.947 14.91C28.2159 14.91 30.6002 14.91 30.9461 14.91C31.0131 15.2005 31.2248 16.1515 31.2248 16.1515H33.3876L31.5031 7.875Z" fill="white"/>
<path d="M12.7612 7.875L10.4736 13.5189L10.2236 12.3742C9.80069 11.0535 8.47431 9.61847 6.99414 8.90496L9.08948 16.1428H11.5596L15.2311 7.875H12.7612Z" fill="white"/>
<path d="M8.35203 7.875H4.59121L4.55273 8.04223C7.48641 8.72906 9.42933 10.3846 10.2276 12.3746L9.41003 8.57073C9.27543 8.04211 8.86179 7.89244 8.35203 7.875Z" fill="#FAA61A"/>
<rect x="52.9159" width="38.163" height="24" rx="3" fill="#306FC8"/>
<mask id="mask0_0_36" style="mask-type:alpha" maskUnits="userSpaceOnUse" x="52" y="0" width="40" height="24">
<rect x="52.9159" width="38.163" height="24" rx="3" fill="url(#paint0_linear_0_36)"/>
</mask>
<g mask="url(#mask0_0_36)">
<path d="M69.4318 17.5758V14.082L67.788 15.8027L69.4318 17.5758Z" fill="white"/>
<path d="M62.5428 14.5205V15.307L64.8932 15.3022V16.2031H62.5428V17.0658H65.1778L66.4045 15.7884L65.2269 14.5205H62.5428Z" fill="white"/>
<path d="M72.5284 7.90035C72.6657 7.82408 72.7492 7.67156 72.7492 7.48567C72.7492 7.29978 72.6608 7.16631 72.5284 7.09482C72.4008 7.02332 72.2094 7.01855 72.018 7.01855H70.6932V7.99091H72.0033C72.2094 7.99091 72.3811 7.98138 72.5284 7.90035Z" fill="white"/>
<path d="M54.8885 8.58655H56.3556L55.6196 6.85156L54.8885 8.58655Z" fill="white"/>
<path d="M71.9069 14.5205H70.5084V15.6168H71.897C72.3043 15.6168 72.5595 15.4261 72.5595 15.0496C72.5546 14.673 72.2896 14.5205 71.9069 14.5205Z" fill="white"/>
<path d="M55.1632 10.3549H56.0857L56.5028 11.332H60.1094V10.5884L60.4332 11.332H62.2978L62.6217 10.5789V11.332H71.5817V9.73999H71.7584C71.8859 9.73999 71.9203 9.75429 71.9203 9.94971V11.332H76.5524V10.9554C76.9204 11.1509 77.4995 11.332 78.2747 11.332H80.2228L80.6448 10.3549H81.5673L81.9844 11.332H85.7283V10.4073L86.3025 11.332H89.3104V5.25H86.3368V5.96497L85.9099 5.25H82.8529V5.96497L82.48 5.25H78.3483C77.6516 5.25 77.0382 5.34056 76.5524 5.59795V5.25H73.7064V5.59795C73.3727 5.3358 72.9557 5.25 72.4846 5.25H62.0672L61.3606 6.81816L60.654 5.25H57.3762V5.96497L57.0033 5.25H54.2063L52.9158 8.1337V11.332H54.7461L55.1632 10.3549ZM76.7536 6.61797C77.0971 6.27002 77.6467 6.10796 78.3876 6.10796H79.4131V7.04218H78.4072C78.0098 7.04218 77.789 7.09938 77.578 7.30434C77.3915 7.48546 77.2639 7.83341 77.2639 8.29099C77.2639 8.7581 77.3572 9.08699 77.5681 9.31578C77.7252 9.48737 78.0245 9.5398 78.314 9.5398H78.7949L80.3062 6.10796H81.9059L83.7263 10.2357V6.10796H85.3652L87.2495 9.14419V6.10796H88.3535V10.474H86.8226L84.796 7.20424V10.474H82.6125L82.2003 9.4969H79.9676L79.5554 10.474H78.3091C77.7841 10.474 77.1216 10.3549 76.7487 9.98785C76.3709 9.61606 76.1795 9.11559 76.1795 8.32436C76.1795 7.67612 76.2973 7.08508 76.7536 6.61797ZM74.5553 6.10796H75.6545V10.474H74.5553V6.10796ZM69.6239 6.10796H72.0969C72.6416 6.10796 73.044 6.12703 73.3875 6.31768C73.7309 6.51311 73.9419 6.79909 73.9419 7.28527C73.9419 7.97641 73.4611 8.33389 73.1765 8.44352C73.412 8.52931 73.6132 8.68661 73.7064 8.8153C73.8585 9.02502 73.8831 9.22522 73.8831 9.60653V10.474H72.8035V9.92112C72.8035 9.66373 72.8281 9.28241 72.6269 9.07746C72.4748 8.92016 72.2392 8.8868 71.8467 8.8868H70.6936V10.474H69.619V6.10796H69.6239ZM65.296 6.10796H68.878V7.01835H66.3657V7.80481H68.8142V8.70091H66.3657V9.56363L68.878 9.55887V10.4693H65.296V6.10796ZM54.0935 10.474H52.9256L54.8442 6.10796H56.4439L58.2644 10.2357V6.10796H60.021L61.4195 9.06792L62.71 6.10796H64.4961V10.474H63.397V7.05648L61.8415 10.474H60.8994L59.339 7.05172V10.474H57.1505L56.7383 9.4969H54.5057L54.0935 10.474Z" fill="white"/>
<path d="M81.0825 6.85156L80.3514 8.58655H81.8136L81.0825 6.85156Z" fill="white"/>
<path d="M88.7018 14.6212C88.5889 14.6927 88.5398 14.7975 88.5398 14.9358C88.5398 15.0978 88.638 15.2122 88.7754 15.2599C88.8833 15.298 89.006 15.3076 89.1876 15.3076L89.7617 15.3219C90.3554 15.3362 90.748 15.4315 90.9884 15.6746C91.0227 15.7079 91.0522 15.7413 91.0767 15.7747V14.5449H89.1287C88.9373 14.5449 88.8048 14.5545 88.7018 14.6212Z" fill="white"/>
<path d="M89.6292 17.9712H87.5585V17.037H89.6194C89.8205 17.037 89.9628 17.0084 90.0512 16.9321C90.1248 16.8654 90.1787 16.7701 90.1787 16.6461C90.1787 16.5174 90.1248 16.4173 90.0463 16.3554C89.9677 16.2887 89.8549 16.2601 89.6733 16.2601C88.6723 16.2315 87.4112 16.2934 87.4112 14.9064C87.4112 14.282 87.8185 13.6099 88.9471 13.6099H91.0816V12.752H89.0943C88.5006 12.752 88.0541 12.8854 87.7498 13.0999V12.752H84.8204C84.3542 12.752 83.7949 12.8616 83.5348 13.0999V12.752H78.2893V13.0999C77.8722 12.8139 77.1705 12.752 76.8368 12.752H73.3775V13.0999C73.0487 12.7901 72.3225 12.752 71.876 12.752H67.9995L67.1113 13.6862L66.287 12.752H60.5066V18.8339H66.1839L67.0917 17.8854L67.9553 18.8292L71.4491 18.8339V17.3992H71.7975C72.2587 17.3992 72.8083 17.3897 73.2842 17.1895V18.8339H76.1793V17.2419H76.3216C76.4983 17.2419 76.513 17.2562 76.513 17.4183V18.8339H85.2718C85.8214 18.8339 86.4151 18.6957 86.739 18.4479V18.8339H89.5163C90.0904 18.8339 90.6596 18.7529 91.0914 18.5527V17.4231C90.8117 17.7949 90.321 17.9712 89.6292 17.9712ZM71.8367 16.5127H70.502V17.9712H68.4117L67.0966 16.5365L65.7227 17.976H61.4684V13.6099H65.7865L67.1015 15.0446L68.4706 13.6099H71.9054C72.7494 13.6099 73.7062 13.8482 73.7062 15.0541C73.7013 16.2601 72.7739 16.5127 71.8367 16.5127ZM78.2942 16.3173C78.4463 16.527 78.4709 16.7272 78.4758 17.1085V17.9712H77.3962V17.4183C77.3962 17.1609 77.4208 16.7796 77.2196 16.5746C77.0626 16.4173 76.8319 16.384 76.4394 16.384H75.2863V17.9712H74.2117V13.6051H76.6847C77.2294 13.6051 77.6269 13.6242 77.9753 13.8196C78.3187 14.0151 78.5297 14.301 78.5297 14.7872C78.5297 15.4784 78.0489 15.8358 77.7692 15.9455C78.0047 16.0313 78.2059 16.1886 78.2942 16.3173ZM82.7055 14.5203H80.1981V15.3068H82.6515V16.2076H80.1981V17.0704H82.7104V17.976H79.1284V13.6099H82.7104V14.5203H82.7055ZM85.4338 17.9712H83.3434V17.037H85.4239C85.6251 17.037 85.7674 17.0084 85.8558 16.9321C85.9294 16.8654 85.9833 16.7701 85.9833 16.6461C85.9833 16.5174 85.9294 16.4173 85.8508 16.3554C85.7723 16.2887 85.6595 16.2601 85.4779 16.2601C84.4769 16.2315 83.2158 16.2934 83.2158 14.9064C83.2158 14.2772 83.6231 13.6099 84.7517 13.6099H86.9009V14.5441H84.9333C84.737 14.5441 84.6094 14.5489 84.5014 14.6156C84.3886 14.6871 84.3444 14.792 84.3444 14.9302C84.3444 15.0923 84.4426 15.2067 84.58 15.2543C84.6928 15.2925 84.8106 15.302 84.9921 15.302L85.5662 15.3163C86.16 15.3306 86.5525 15.4259 86.793 15.669C87.004 15.8883 87.1168 16.1409 87.1168 16.5937C87.1217 17.5279 86.5231 17.9712 85.4338 17.9712Z" fill="white"/>
<path d="M77.1211 14.592C76.9935 14.5253 76.7973 14.5205 76.6108 14.5205H75.2859V15.4929H76.5961C76.8022 15.4929 76.9788 15.4881 77.1211 15.4071C77.2585 15.3308 77.3419 15.1783 77.3419 14.9924C77.337 14.8017 77.2536 14.6683 77.1211 14.592Z" fill="white"/>
</g>
<rect x="106.058" width="37.9411" height="24" rx="3" fill="#0F3560"/>
<path d="M128.34 17.8983H121.701V6.10547H128.34V17.8983Z" fill="#FF5F00"/>
<path d="M122.127 12.001C122.127 9.60874 123.26 7.4778 125.025 6.10454C123.734 5.10034 122.105 4.50097 120.335 4.50097C116.145 4.50097 112.748 7.85878 112.748 12.001C112.748 16.1432 116.145 19.501 120.335 19.501C122.105 19.501 123.734 18.9016 125.025 17.8974C123.26 16.5241 122.127 14.3932 122.127 12.001Z" fill="#EB001B"/>
<path d="M137.294 12.001C137.294 16.1432 133.898 19.501 129.707 19.501C127.937 19.501 126.308 18.9016 125.017 17.8974C126.783 16.5241 127.916 14.3932 127.916 12.001C127.916 9.60874 126.783 7.4778 125.017 6.10454C126.308 5.10034 127.937 4.50097 129.707 4.50097C133.898 4.50097 137.294 7.85878 137.294 12.001Z" fill="#F79E1B"/>
<path d="M118.457 12.0484C118.457 11.7208 118.675 11.4517 119.03 11.4517C119.369 11.4517 119.598 11.7092 119.598 12.0484C119.598 12.3876 119.369 12.6452 119.03 12.6452C118.675 12.6452 118.457 12.376 118.457 12.0484ZM119.984 12.0484V11.1165H119.574V11.3428C119.444 11.175 119.247 11.0697 118.979 11.0697C118.45 11.0697 118.035 11.4794 118.035 12.0484C118.035 12.6179 118.45 13.0272 118.979 13.0272C119.247 13.0272 119.444 12.9219 119.574 12.7541V12.9804H119.984V12.0484ZM133.84 12.0484C133.84 11.7208 134.057 11.4517 134.412 11.4517C134.752 11.4517 134.98 11.7092 134.98 12.0484C134.98 12.3876 134.752 12.6452 134.412 12.6452C134.057 12.6452 133.84 12.376 133.84 12.0484ZM135.367 12.0484V10.3681H134.957V11.3428C134.827 11.175 134.629 11.0697 134.361 11.0697C133.832 11.0697 133.418 11.4794 133.418 12.0484C133.418 12.6179 133.832 13.0272 134.361 13.0272C134.629 13.0272 134.827 12.9219 134.957 12.7541V12.9804H135.367V12.0484ZM125.074 11.4325C125.338 11.4325 125.508 11.5963 125.551 11.8846H124.573C124.616 11.6155 124.782 11.4325 125.074 11.4325ZM125.082 11.0697C124.529 11.0697 124.143 11.4673 124.143 12.0484C124.143 12.6412 124.545 13.0272 125.109 13.0272C125.394 13.0272 125.654 12.9571 125.883 12.7661L125.682 12.4658C125.524 12.5903 125.322 12.6608 125.133 12.6608C124.869 12.6608 124.628 12.5398 124.569 12.2042H125.969C125.973 12.1538 125.977 12.1029 125.977 12.0484C125.973 11.4673 125.61 11.0697 125.082 11.0697ZM130.033 12.0484C130.033 11.7208 130.25 11.4517 130.605 11.4517C130.944 11.4517 131.173 11.7092 131.173 12.0484C131.173 12.3876 130.944 12.6452 130.605 12.6452C130.25 12.6452 130.033 12.376 130.033 12.0484ZM131.56 12.0484V11.1165H131.15V11.3428C131.019 11.175 130.822 11.0697 130.554 11.0697C130.025 11.0697 129.611 11.4794 129.611 12.0484C129.611 12.6179 130.025 13.0272 130.554 13.0272C130.822 13.0272 131.019 12.9219 131.15 12.7541V12.9804H131.56V12.0484ZM127.717 12.0484C127.717 12.6139 128.116 13.0272 128.723 13.0272C129.007 13.0272 129.197 12.9647 129.402 12.805L129.205 12.4774C129.051 12.5867 128.889 12.6452 128.711 12.6452C128.384 12.6412 128.143 12.4073 128.143 12.0484C128.143 11.6896 128.384 11.4557 128.711 11.4517C128.889 11.4517 129.051 11.5102 129.205 11.6195L129.402 11.2919C129.197 11.1322 129.007 11.0697 128.723 11.0697C128.116 11.0697 127.717 11.483 127.717 12.0484ZM133.004 11.0697C132.767 11.0697 132.613 11.179 132.507 11.3428V11.1165H132.1V12.9804H132.511V11.9355C132.511 11.6271 132.645 11.4557 132.913 11.4557C132.996 11.4557 133.083 11.4673 133.17 11.5026L133.296 11.1205C133.205 11.0853 133.087 11.0697 133.004 11.0697ZM122.012 11.2647C121.815 11.1362 121.543 11.0697 121.243 11.0697C120.765 11.0697 120.458 11.296 120.458 11.6664C120.458 11.9703 120.687 12.1578 121.109 12.2163L121.302 12.2435C121.527 12.2747 121.633 12.3332 121.633 12.4385C121.633 12.5827 121.483 12.6648 121.203 12.6648C120.919 12.6648 120.714 12.5751 120.576 12.4698L120.383 12.7853C120.608 12.9491 120.892 13.0272 121.199 13.0272C121.744 13.0272 122.06 12.7737 122.06 12.4189C122.06 12.0913 121.811 11.9199 121.401 11.8614L121.207 11.8338C121.03 11.8106 120.888 11.7757 120.888 11.6508C120.888 11.5142 121.022 11.4325 121.247 11.4325C121.487 11.4325 121.72 11.5222 121.835 11.5923L122.012 11.2647ZM127.303 11.0697C127.066 11.0697 126.912 11.179 126.806 11.3428V11.1165H126.4V12.9804H126.81V11.9355C126.81 11.6271 126.944 11.4557 127.212 11.4557C127.295 11.4557 127.382 11.4673 127.468 11.5026L127.595 11.1205C127.504 11.0853 127.386 11.0697 127.303 11.0697ZM123.804 11.1165H123.133V10.551H122.718V11.1165H122.336V11.487H122.718V12.3372C122.718 12.7697 122.888 13.0272 123.373 13.0272C123.551 13.0272 123.756 12.9728 123.886 12.8831L123.768 12.5358C123.645 12.6059 123.511 12.6412 123.405 12.6412C123.2 12.6412 123.133 12.5162 123.133 12.3292V11.487H123.804V11.1165ZM117.673 12.9804V11.8106C117.673 11.37 117.389 11.0737 116.931 11.0697C116.69 11.0657 116.442 11.1397 116.268 11.4013C116.138 11.1946 115.933 11.0697 115.645 11.0697C115.443 11.0697 115.246 11.1281 115.092 11.3464V11.1165H114.682V12.9804H115.096V11.9471C115.096 11.6235 115.277 11.4517 115.558 11.4517C115.83 11.4517 115.968 11.6271 115.968 11.9431V12.9804H116.382V11.9471C116.382 11.6235 116.572 11.4517 116.844 11.4517C117.124 11.4517 117.258 11.6271 117.258 11.9431V12.9804H117.673Z" fill="white"/>
<defs>
<linearGradient id="paint0_linear_0_36" x1="71.9974" y1="0" x2="71.9974" y2="24" gradientUnits="userSpaceOnUse">
<stop stop-color="#1B8ABA"/>
<stop offset="1" stop-color="#005D9C"/>
</linearGradient>
</defs>
</svg>
