<svg width="70" height="70" viewBox="0 0 70 70" fill="none" xmlns="http://www.w3.org/2000/svg">
<g clip-path="url(#clip0_21_320)">
<path d="M49.5833 8.75C51.1304 8.75 52.6142 9.36458 53.7081 10.4585C54.8021 11.5525 55.4167 13.0362 55.4167 14.5833V55.4167H58.3333C59.1069 55.4167 59.8488 55.724 60.3957 56.2709C60.9427 56.8179 61.25 57.5598 61.25 58.3333C61.25 59.1069 60.9427 59.8488 60.3957 60.3957C59.8488 60.9427 59.1069 61.25 58.3333 61.25H11.6667C10.8931 61.25 10.1513 60.9427 9.60427 60.3957C9.05729 59.8488 8.75 59.1069 8.75 58.3333C8.75 57.5598 9.05729 56.8179 9.60427 56.2709C10.1513 55.724 10.8931 55.4167 11.6667 55.4167H14.5833V14.5833C14.5833 13.0362 15.1979 11.5525 16.2919 10.4585C17.3858 9.36458 18.8696 8.75 20.4167 8.75H49.5833ZM49.5833 14.5833H20.4167V55.4167H49.5833V14.5833ZM42.2917 32.0833C42.8662 32.0833 43.4351 32.1965 43.9659 32.4164C44.4967 32.6362 44.979 32.9585 45.3853 33.3647C45.7915 33.771 46.1138 34.2533 46.3336 34.7841C46.5535 35.3149 46.6667 35.8838 46.6667 36.4583C46.6667 37.0329 46.5535 37.6018 46.3336 38.1326C46.1138 38.6634 45.7915 39.1457 45.3853 39.5519C44.979 39.9582 44.4967 40.2804 43.9659 40.5003C43.4351 40.7202 42.8662 40.8333 42.2917 40.8333C41.1313 40.8333 40.0185 40.3724 39.1981 39.5519C38.3776 38.7315 37.9167 37.6187 37.9167 36.4583C37.9167 35.298 38.3776 34.1852 39.1981 33.3647C40.0185 32.5443 41.1313 32.0833 42.2917 32.0833Z" fill="#5271FF"/>
</g>
<defs>
<clipPath id="clip0_21_320">
<rect width="70" height="70" fill="white"/>
</clipPath>
</defs>
</svg>
