<svg width="204" height="59" viewBox="0 0 204 59" fill="none" xmlns="http://www.w3.org/2000/svg">
<path d="M202.867 52.1958C202.867 55.34 200.27 57.8869 197.058 57.8869H6.95011C3.73945 57.8869 1.13335 55.34 1.13335 52.1958V6.81174C1.13335 3.66904 3.73945 1.11328 6.95011 1.11328H197.056C200.27 1.11328 202.865 3.66904 202.865 6.81174L202.867 52.1958Z" fill="black"/>
<path d="M196.444 1.18185C199.943 1.18185 202.789 3.96038 202.789 7.37501V51.625C202.789 55.0396 199.943 57.8182 196.444 57.8182H7.55555C4.05733 57.8182 1.21078 55.0396 1.21078 51.625V7.37501C1.21078 3.96038 4.05733 1.18185 7.55555 1.18185H196.444ZM196.444 5.4802e-06H7.55555C3.40189 5.4802e-06 0 3.3206 0 7.37501V51.625C0 55.6794 3.40189 59 7.55555 59H196.444C200.598 59 204 55.6794 204 51.625V7.37501C204 3.3206 200.598 5.4802e-06 196.444 5.4802e-06Z" fill="#A6A6A6"/>
<path d="M45.5268 29.1815C45.483 24.4276 49.5146 22.1148 49.699 22.0071C47.4157 18.7577 43.8767 18.3137 42.633 18.2783C39.6607 17.973 36.7775 20.0144 35.2634 20.0144C33.719 20.0144 31.3874 18.3078 28.8744 18.3579C25.6406 18.4066 22.6154 20.2341 20.9562 23.072C17.532 28.8585 20.0858 37.3618 23.3664 42.0391C25.0074 44.3297 26.925 46.8874 29.435 46.7974C31.8906 46.6986 32.8078 45.2693 35.7711 45.2693C38.7072 45.2693 39.5685 46.7974 42.1283 46.7399C44.7637 46.6986 46.4229 44.4389 48.0066 42.1276C49.903 39.5021 50.6646 36.9164 50.6948 36.7836C50.6329 36.763 45.5767 34.8794 45.5268 29.1815Z" fill="white"/>
<path d="M40.6913 15.2014C42.012 13.5893 42.9156 11.3959 42.6648 9.17017C40.7532 9.25277 38.3626 10.4608 36.986 12.0376C35.7681 13.427 34.6801 15.7044 34.9611 17.8461C37.1084 18.0025 39.3131 16.7885 40.6913 15.2014Z" fill="white"/>
<path d="M81.0635 46.4684H77.6318L75.752 40.7026H69.2179L67.4273 46.4684H64.0862L70.5598 26.8391H74.5582L81.0635 46.4684ZM75.1853 38.2836L73.4853 33.158C73.3055 32.6344 72.9685 31.4013 72.4713 29.4602H72.4109C72.2129 30.295 71.8941 31.5281 71.4559 33.158L69.7861 38.2836H75.1853Z" fill="white"/>
<path d="M97.7115 39.2173C97.7115 41.6245 97.0451 43.5272 95.7123 44.924C94.5185 46.1675 93.0361 46.7884 91.2666 46.7884C89.3565 46.7884 87.9845 46.1188 87.1488 44.7795H87.0884V52.2356H83.8667V36.9738C83.8667 35.4604 83.8259 33.9073 83.7473 32.3143H86.5806L86.7605 34.5577H86.8209C87.8953 32.8674 89.5258 32.0237 91.7139 32.0237C93.4245 32.0237 94.8525 32.683 95.9949 34.0031C97.1403 35.3247 97.7115 37.0623 97.7115 39.2173ZM94.4294 39.3323C94.4294 37.9547 94.112 36.8189 93.4743 35.9251C92.7777 34.9929 91.8423 34.5268 90.6697 34.5268C89.8749 34.5268 89.1525 34.7864 88.5073 35.2982C87.8605 35.8144 87.4374 36.4885 87.2395 37.3234C87.1397 37.7128 87.0899 38.0314 87.0899 38.2821V40.6421C87.0899 41.6717 87.4133 42.5404 88.06 43.2499C88.7068 43.9594 89.547 44.3134 90.5806 44.3134C91.794 44.3134 92.7384 43.8561 93.4139 42.9446C94.0909 42.0316 94.4294 40.828 94.4294 39.3323Z" fill="white"/>
<path d="M114.39 39.2173C114.39 41.6245 113.723 43.5272 112.389 44.924C111.197 46.1675 109.714 46.7884 107.945 46.7884C106.035 46.7884 104.663 46.1188 103.828 44.7795H103.768V52.2356H100.546V36.9738C100.546 35.4604 100.506 33.9073 100.427 32.3143H103.26L103.44 34.5577H103.501C104.573 32.8674 106.204 32.0237 108.394 32.0237C110.103 32.0237 111.531 32.683 112.676 34.0031C113.817 35.3247 114.39 37.0623 114.39 39.2173ZM111.107 39.3323C111.107 37.9547 110.789 36.8189 110.151 35.9251C109.454 34.9929 108.522 34.5268 107.348 34.5268C106.551 34.5268 105.831 34.7864 105.184 35.2982C104.537 35.8144 104.116 36.4885 103.918 37.3234C103.819 37.7128 103.768 38.0314 103.768 38.2821V40.6421C103.768 41.6717 104.091 42.5404 104.735 43.2499C105.382 43.9579 106.222 44.3134 107.259 44.3134C108.472 44.3134 109.417 43.8561 110.092 42.9446C110.769 42.0316 111.107 40.828 111.107 39.3323Z" fill="white"/>
<path d="M133.037 40.9637C133.037 42.6334 132.443 43.9919 131.25 45.0406C129.94 46.1867 128.116 46.759 125.773 46.759C123.609 46.759 121.874 46.3519 120.561 45.5362L121.307 42.9152C122.722 43.75 124.274 44.1689 125.965 44.1689C127.178 44.1689 128.122 43.9005 128.801 43.3665C129.476 42.8326 129.813 42.1157 129.813 41.2219C129.813 40.4254 129.535 39.7542 128.978 39.21C128.423 38.6657 127.497 38.1598 126.203 37.6922C122.682 36.4104 120.924 34.5327 120.924 32.0636C120.924 30.4499 121.54 29.1269 122.775 28.0973C124.005 27.0663 125.646 26.5515 127.698 26.5515C129.528 26.5515 131.048 26.8627 132.261 27.4837L131.456 30.0473C130.323 29.4455 129.041 29.1446 127.607 29.1446C126.474 29.1446 125.588 29.4174 124.954 29.9602C124.417 30.4455 124.148 31.037 124.148 31.7376C124.148 32.5135 124.455 33.1551 125.072 33.6595C125.608 34.1256 126.583 34.6301 127.997 35.1744C129.727 35.8543 130.998 36.6494 131.816 37.5609C132.63 38.4695 133.037 39.6067 133.037 40.9637Z" fill="white"/>
<path d="M143.689 34.6743H140.137V41.5463C140.137 43.2942 140.763 44.1674 142.017 44.1674C142.593 44.1674 143.07 44.1187 143.448 44.0214L143.537 46.4094C142.903 46.641 142.067 46.7575 141.032 46.7575C139.76 46.7575 138.765 46.3784 138.048 45.6218C137.333 44.8636 136.973 43.5922 136.973 41.8059V34.6714H134.858V32.3114H136.973V29.7198L140.137 28.7876V32.3114H143.689V34.6743Z" fill="white"/>
<path d="M159.711 39.2748C159.711 41.4504 159.073 43.2366 157.801 44.6334C156.466 46.0716 154.695 46.7884 152.488 46.7884C150.36 46.7884 148.666 46.0996 147.403 44.7219C146.14 43.3443 145.508 41.6053 145.508 39.5093C145.508 37.316 146.158 35.5194 147.462 34.1226C148.763 32.7243 150.519 32.0251 152.726 32.0251C154.854 32.0251 156.566 32.714 157.858 34.0931C159.094 35.4309 159.711 37.1581 159.711 39.2748ZM156.368 39.3765C156.368 38.0712 156.083 36.9516 155.504 36.018C154.828 34.8881 153.863 34.3247 152.612 34.3247C151.317 34.3247 150.333 34.8896 149.657 36.018C149.079 36.9531 148.793 38.0903 148.793 39.4355C148.793 40.7409 149.079 41.8604 149.657 42.7926C150.354 43.9225 151.327 44.4859 152.583 44.4859C153.813 44.4859 154.779 43.9107 155.475 42.7631C156.069 41.8118 156.368 40.6804 156.368 39.3765Z" fill="white"/>
<path d="M170.183 35.0799C169.864 35.0224 169.524 34.9929 169.167 34.9929C168.034 34.9929 167.158 35.4103 166.541 36.2466C166.005 36.9841 165.736 37.9163 165.736 39.0417V46.4684H162.515L162.546 36.7717C162.546 35.1404 162.505 33.655 162.425 32.3157H165.231L165.349 35.0238H165.438C165.778 34.0931 166.314 33.3438 167.049 32.7818C167.767 32.2759 168.542 32.0237 169.377 32.0237C169.675 32.0237 169.944 32.0443 170.183 32.0812V35.0799Z" fill="white"/>
<path d="M184.591 38.7218C184.591 39.2853 184.553 39.7602 184.473 40.1482H174.808C174.846 41.5465 175.313 42.6158 176.211 43.3533C177.025 44.0127 178.078 44.3431 179.372 44.3431C180.803 44.3431 182.108 44.1203 183.283 43.6734L183.787 45.8564C182.415 46.4405 180.795 46.7311 178.926 46.7311C176.678 46.7311 174.913 46.085 173.628 44.7944C172.347 43.5038 171.704 41.7707 171.704 39.5965C171.704 37.4622 172.301 35.6848 173.497 34.2673C174.748 32.754 176.439 31.9973 178.566 31.9973C180.656 31.9973 182.238 32.754 183.313 34.2673C184.164 35.4695 184.591 36.9563 184.591 38.7218ZM181.519 37.9062C181.54 36.974 181.33 36.1686 180.894 35.4886C180.336 34.614 179.479 34.1774 178.326 34.1774C177.273 34.1774 176.416 34.6036 175.762 35.4591C175.225 36.1391 174.907 36.9548 174.808 37.9047H181.519V37.9062Z" fill="white"/>
<path d="M74.12 14.7633C74.12 16.4994 73.5866 17.8063 72.5213 18.6839C71.5345 19.4937 70.1322 19.8993 68.3158 19.8993C67.4152 19.8993 66.6445 19.8609 65.9993 19.7842V10.2985C66.841 10.1657 67.7476 10.0979 68.7268 10.0979C70.4571 10.0979 71.7612 10.4652 72.6406 11.1997C73.6259 12.0302 74.12 13.2175 74.12 14.7633ZM72.4502 14.8061C72.4502 13.6807 72.145 12.8178 71.5345 12.216C70.924 11.6157 70.0325 11.3148 68.8583 11.3148C68.3597 11.3148 67.935 11.3472 67.5829 11.4151V18.6264C67.7779 18.6559 68.1345 18.6691 68.6528 18.6691C69.8647 18.6691 70.8001 18.3402 71.4589 17.6824C72.1178 17.0245 72.4502 16.0658 72.4502 14.8061Z" fill="white"/>
<path d="M82.9736 16.2796C82.9736 17.349 82.6608 18.2252 82.0352 18.9125C81.3794 19.619 80.5105 19.9716 79.4255 19.9716C78.3799 19.9716 77.5472 19.6338 76.9262 18.9553C76.3066 18.2783 75.9968 17.4242 75.9968 16.3947C75.9968 15.3179 76.3157 14.4344 76.9564 13.7485C77.5971 13.0627 78.4584 12.719 79.5434 12.719C80.5891 12.719 81.4293 13.0568 82.0655 13.7338C82.6699 14.3916 82.9736 15.2412 82.9736 16.2796ZM81.3311 16.3298C81.3311 15.6882 81.189 15.138 80.9064 14.6793C80.574 14.1247 80.101 13.8474 79.486 13.8474C78.8498 13.8474 78.3663 14.1247 78.0338 14.6793C77.7497 15.138 77.6092 15.697 77.6092 16.3578C77.6092 16.9994 77.7512 17.5496 78.0338 18.0083C78.3768 18.5629 78.8543 18.8402 79.4709 18.8402C80.0753 18.8402 80.5498 18.5585 80.8913 17.9936C81.1845 17.526 81.3311 16.9714 81.3311 16.3298Z" fill="white"/>
<path d="M94.8449 12.8606L92.616 19.8137H91.1654L90.2421 16.7944C90.0079 16.0407 89.8175 15.2914 89.6694 14.548H89.6407C89.5032 15.312 89.3128 16.0599 89.068 16.7944L88.0872 19.8137H86.62L84.5241 12.8606H86.1515L86.9569 16.1661C87.1519 16.9478 87.3121 17.6927 87.4405 18.3977H87.4692C87.5871 17.8166 87.782 17.0761 88.057 16.1808L89.068 12.8621H90.3585L91.3271 16.11C91.5613 16.9021 91.7517 17.6647 91.8983 18.3992H91.9421C92.0494 17.6838 92.2111 16.9213 92.4257 16.11L93.29 12.8621H94.8449V12.8606Z" fill="white"/>
<path d="M103.055 19.8138H101.471V15.8313C101.471 14.6041 100.994 13.9905 100.036 13.9905C99.5657 13.9905 99.1864 14.1586 98.8917 14.4964C98.6001 14.8342 98.452 15.2324 98.452 15.6882V19.8123H96.8683V14.8475C96.8683 14.2368 96.8487 13.5745 96.8109 12.8577H98.2027L98.2767 13.9448H98.3205C98.5049 13.607 98.7799 13.3282 99.1411 13.1055C99.5702 12.8459 100.051 12.7146 100.577 12.7146C101.241 12.7146 101.795 12.924 102.234 13.3444C102.781 13.8592 103.055 14.6277 103.055 15.6484V19.8138Z" fill="white"/>
<path d="M107.422 19.8137H105.84V9.67017H107.422V19.8137Z" fill="white"/>
<path d="M116.745 16.2796C116.745 17.349 116.433 18.2252 115.807 18.9125C115.151 19.619 114.281 19.9716 113.197 19.9716C112.15 19.9716 111.318 19.6338 110.698 18.9553C110.078 18.2783 109.769 17.4242 109.769 16.3947C109.769 15.3179 110.088 14.4344 110.728 13.7485C111.369 13.0627 112.23 12.719 113.314 12.719C114.361 12.719 115.2 13.0568 115.837 13.7338C116.442 14.3916 116.745 15.2412 116.745 16.2796ZM115.101 16.3298C115.101 15.6882 114.959 15.138 114.677 14.6793C114.346 14.1247 113.871 13.8474 113.258 13.8474C112.62 13.8474 112.137 14.1247 111.806 14.6793C111.522 15.138 111.381 15.697 111.381 16.3578C111.381 16.9994 111.523 17.5496 111.806 18.0083C112.149 18.5629 112.626 18.8402 113.243 18.8402C113.847 18.8402 114.32 18.5585 114.662 17.9936C114.956 17.526 115.101 16.9714 115.101 16.3298Z" fill="white"/>
<path d="M124.41 19.8137H122.988L122.87 19.0128H122.826C122.34 19.6515 121.646 19.9716 120.745 19.9716C120.073 19.9716 119.529 19.7606 119.119 19.3417C118.748 18.9612 118.562 18.4877 118.562 17.9257C118.562 17.0761 118.925 16.4286 119.654 15.9802C120.383 15.5318 121.407 15.312 122.726 15.3224V15.1926C122.726 14.2766 122.234 13.8193 121.247 13.8193C120.544 13.8193 119.925 13.9919 119.39 14.3341L119.068 13.3193C119.73 12.9196 120.547 12.719 121.512 12.719C123.373 12.719 124.307 13.6777 124.307 15.5952V18.1558C124.307 18.8506 124.342 19.4037 124.41 19.8137ZM122.766 17.4242V16.3519C121.019 16.3224 120.145 16.79 120.145 17.7532C120.145 18.116 120.245 18.3874 120.449 18.5688C120.653 18.7503 120.913 18.8402 121.223 18.8402C121.57 18.8402 121.895 18.7326 122.192 18.5187C122.489 18.3033 122.672 18.0305 122.74 17.6956C122.757 17.6204 122.766 17.529 122.766 17.4242Z" fill="white"/>
<path d="M133.409 19.8137H132.003L131.929 18.6972H131.885C131.437 19.5468 130.672 19.9716 129.597 19.9716C128.739 19.9716 128.024 19.6426 127.458 18.9848C126.891 18.3269 126.609 17.4729 126.609 16.4242C126.609 15.2988 126.915 14.3872 127.532 13.691C128.129 13.042 128.86 12.7175 129.73 12.7175C130.687 12.7175 131.356 13.0317 131.737 13.6615H131.767V9.67017H133.353V17.9405C133.353 18.6175 133.371 19.2414 133.409 19.8137ZM131.767 16.8814V15.7221C131.767 15.5215 131.752 15.3592 131.724 15.2353C131.634 14.8636 131.443 14.5509 131.151 14.2987C130.856 14.0465 130.501 13.9196 130.092 13.9196C129.501 13.9196 129.038 14.1483 128.698 14.607C128.361 15.0657 128.191 15.6513 128.191 16.3667C128.191 17.054 128.352 17.6116 128.677 18.0408C129.02 18.498 129.483 18.7267 130.061 18.7267C130.581 18.7267 130.997 18.5364 131.313 18.1544C131.618 17.8018 131.767 17.377 131.767 16.8814Z" fill="white"/>
<path d="M146.953 16.2796C146.953 17.349 146.64 18.2252 146.014 18.9125C145.358 19.619 144.491 19.9716 143.405 19.9716C142.36 19.9716 141.528 19.6338 140.905 18.9553C140.286 18.2783 139.976 17.4242 139.976 16.3947C139.976 15.3179 140.295 14.4344 140.935 13.7485C141.576 13.0627 142.437 12.719 143.524 12.719C144.568 12.719 145.41 13.0568 146.044 13.7338C146.649 14.3916 146.953 15.2412 146.953 16.2796ZM145.312 16.3298C145.312 15.6882 145.17 15.138 144.887 14.6793C144.553 14.1247 144.082 13.8474 143.465 13.8474C142.83 13.8474 142.347 14.1247 142.013 14.6793C141.729 15.138 141.588 15.697 141.588 16.3578C141.588 16.9994 141.73 17.5496 142.013 18.0083C142.356 18.5629 142.833 18.8402 143.45 18.8402C144.054 18.8402 144.53 18.5585 144.872 17.9936C145.163 17.526 145.312 16.9714 145.312 16.3298Z" fill="white"/>
<path d="M155.468 19.8138H153.886V15.8313C153.886 14.6041 153.408 13.9905 152.448 13.9905C151.979 13.9905 151.599 14.1586 151.306 14.4964C151.013 14.8342 150.866 15.2324 150.866 15.6882V19.8123H149.281V14.8475C149.281 14.2368 149.263 13.5745 149.225 12.8577H150.615L150.69 13.9448H150.733C150.919 13.607 151.194 13.3282 151.554 13.1055C151.985 12.8459 152.464 12.7146 152.991 12.7146C153.654 12.7146 154.207 12.924 154.647 13.3444C155.196 13.8592 155.468 14.6277 155.468 15.6484V19.8138Z" fill="white"/>
<path d="M166.126 14.0184H164.382V17.3962C164.382 18.2546 164.692 18.6839 165.305 18.6839C165.589 18.6839 165.825 18.6603 166.011 18.6116L166.052 19.7842C165.739 19.8993 165.328 19.9568 164.822 19.9568C164.196 19.9568 163.709 19.7709 163.357 19.3992C163.004 19.0275 162.828 18.4021 162.828 17.5245V14.0184H161.787V12.8606H162.828V11.5862L164.38 11.1289V12.8591H166.124V14.0184H166.126Z" fill="white"/>
<path d="M174.509 19.8137H172.924V15.8607C172.924 14.6144 172.447 13.9904 171.49 13.9904C170.756 13.9904 170.254 14.3518 169.979 15.0746C169.932 15.2265 169.905 15.4123 169.905 15.6306V19.8123H168.323V9.67017H169.905V13.8606H169.935C170.434 13.0981 171.148 12.7175 172.075 12.7175C172.731 12.7175 173.273 12.927 173.704 13.3473C174.24 13.871 174.509 14.6498 174.509 15.6793V19.8137Z" fill="white"/>
<path d="M183.157 16.0083C183.157 16.2856 183.136 16.5187 183.098 16.709H178.349C178.37 17.3963 178.597 17.9199 179.036 18.2828C179.438 18.6073 179.957 18.7695 180.591 18.7695C181.294 18.7695 181.935 18.6604 182.512 18.4406L182.76 19.5144C182.084 19.8006 181.29 19.9436 180.369 19.9436C179.266 19.9436 178.397 19.6265 177.769 18.9923C177.137 18.358 176.824 17.5069 176.824 16.439C176.824 15.3903 177.116 14.5171 177.704 13.8209C178.317 13.0775 179.147 12.7058 180.194 12.7058C181.218 12.7058 181.997 13.0775 182.523 13.8209C182.947 14.4109 183.157 15.141 183.157 16.0083ZM181.646 15.6086C181.658 15.1499 181.554 14.7546 181.339 14.4212C181.064 13.992 180.646 13.7767 180.079 13.7767C179.562 13.7767 179.141 13.9861 178.819 14.4065C178.556 14.7413 178.4 15.141 178.349 15.6086H181.646Z" fill="white"/>
</svg>
