<svg width="70" height="70" viewBox="0 0 70 70" fill="none" xmlns="http://www.w3.org/2000/svg">
<path d="M54.3112 26.8713L45.882 18.4421L39.6841 24.6254L35.5599 20.5188L42.8458 13.2125C43.2794 12.7789 43.7587 12.4659 44.2837 12.2734C44.8068 12.0789 45.3395 11.9817 45.882 11.9817C46.4342 11.9817 46.9787 12.0789 47.5154 12.2734C48.052 12.4659 48.5323 12.7789 48.9562 13.2125L53.4712 17.7275C54.1965 18.4411 54.7283 19.2422 55.0666 20.1309C55.4049 21.0195 55.5741 21.9479 55.5741 22.9163C55.5741 23.5852 55.4701 24.2579 55.262 24.9346C55.054 25.6113 54.737 26.2559 54.3112 26.8684M21.1458 39.0542C20.5333 38.4417 20.227 37.7456 20.227 36.9659C20.227 36.1881 20.5333 35.492 21.1458 34.8775L27.2824 28.7234L31.4037 32.8475L25.1941 39.0542C24.5913 39.6686 23.9205 39.9759 23.1816 39.9759C22.4369 39.9759 21.7583 39.6686 21.1458 39.0542ZM15.6537 59.0859C15.2318 58.6522 14.9216 58.1574 14.7233 57.6013C14.5249 57.0452 14.4258 56.4716 14.4258 55.8804C14.4258 55.2913 14.523 54.7274 14.7174 54.1888C14.908 53.6541 15.2201 53.1699 15.6537 52.7363L35.5599 32.8446L25.2933 22.5604C24.6788 21.9577 24.3804 21.2849 24.3979 20.5421C24.4173 19.8013 24.7333 19.1236 25.3458 18.5092C25.9486 17.8967 26.633 17.5992 27.3991 17.6167C28.1652 17.6361 28.8555 17.9521 29.4699 18.5646L39.6841 28.7788L43.8404 24.6225L50.4904 31.3104C50.8131 31.6313 50.9745 31.9657 50.9745 32.3138C50.9745 32.6618 50.8141 32.9963 50.4933 33.3171C50.1705 33.601 49.8069 33.7245 49.4024 33.6875C48.9999 33.6486 48.5255 33.3939 47.9791 32.9234L21.8749 59.0275C21.4413 59.4631 20.9649 59.7859 20.4458 59.9959C19.9286 60.2078 19.3802 60.3138 18.8008 60.3138C18.2213 60.3138 17.6604 60.2146 17.1179 60.0163C16.5754 59.8179 16.0873 59.5097 15.6537 59.0859Z" fill="#5271FF"/>
</svg>
