<svg width="20" height="20" viewBox="0 0 20 20" fill="none" xmlns="http://www.w3.org/2000/svg">
<path fill-rule="evenodd" clip-rule="evenodd" d="M9.16713 2.65833C9.22469 2.4758 9.33895 2.31637 9.4933 2.2032C9.64766 2.09002 9.83407 2.02901 10.0255 2.02901C10.2169 2.02901 10.4033 2.09002 10.5576 2.2032C10.712 2.31637 10.8262 2.4758 10.8838 2.65833L12.4338 7.425H17.4338C17.632 7.4175 17.8273 7.47512 17.9897 7.58903C18.1521 7.70295 18.2728 7.8669 18.3332 8.05585C18.3937 8.24479 18.3906 8.44833 18.3245 8.63538C18.2584 8.82242 18.1329 8.98268 17.9671 9.09167L13.9088 12.0333L15.4588 16.8083C15.5201 16.9902 15.5216 17.1869 15.4632 17.3698C15.4048 17.5526 15.2894 17.712 15.134 17.8246C14.9786 17.9372 14.7912 17.9972 14.5993 17.9957C14.4073 17.9943 14.2209 17.9316 14.0671 17.8167L10.0005 14.8417L5.94213 17.7917C5.78839 17.9066 5.60193 17.9693 5.41 17.9707C5.21807 17.9722 5.0307 17.9122 4.87527 17.7996C4.71984 17.687 4.60449 17.5276 4.54605 17.3448C4.48762 17.1619 4.48916 16.9652 4.55046 16.7833L6.10046 12.0083L2.04213 9.06667C1.87637 8.95768 1.75084 8.79742 1.68473 8.61038C1.61862 8.42334 1.61556 8.21979 1.67603 8.03085C1.73649 7.8419 1.85715 7.67795 2.01956 7.56403C2.18198 7.45012 2.37722 7.3925 2.57546 7.4H7.57546L9.16713 2.65833Z" fill="#FBAD39"/>
</svg>
